<?xml version="1.0" encoding="UTF-8"?><svg id="a" xmlns="http://www.w3.org/2000/svg" viewBox="0 0 859.11 222.26"><path d="M366.02,14.5l-95.91,191h11.6l38.41-76.81,50.47-100.16,47.72,94.66,41.16,82.31h11.6L375.16,14.5h-9.14ZM115.75,186.99L22,17.49H12V205.23h10.45V41.02L115.65,207.76,224.68,19.37l1.08-1.86h-11.78L115.75,186.99Zm97.73,18.24h10.46v-70.57l-10.46,.24v70.33ZM469.69,17.49v10.46h197.92v-10.46h-197.92Zm367,0V103.49h-153.75l-.06,10.46h153.78v91.25h10.45V17.49h-10.42Zm-273,187.74h10.46v-66.26l-10.46-.16v66.42h0Z" style="fill:#e8e9e5;"/></svg>